<?xml version="1.0" encoding="UTF-8" standalone="no"?>
<!-- Created with Inkscape (http://www.inkscape.org/) -->

<svg
   width="101.5mm"
   height="101.5mm"
   viewBox="0 0 101.5 101.5"
   version="1.1"
   id="svg5"
   inkscape:version="1.1.2 (b8e25be833, 2022-02-05)"
   sodipodi:docname="goodtripLogo.svg"
   xmlns:inkscape="http://www.inkscape.org/namespaces/inkscape"
   xmlns:sodipodi="http://sodipodi.sourceforge.net/DTD/sodipodi-0.dtd"
   xmlns="http://www.w3.org/2000/svg"
   xmlns:svg="http://www.w3.org/2000/svg">
  <sodipodi:namedview
     id="namedview7"
     pagecolor="#505050"
     bordercolor="#ffffff"
     borderopacity="1"
     inkscape:pageshadow="0"
     inkscape:pageopacity="0"
     inkscape:pagecheckerboard="1"
     inkscape:document-units="mm"
     showgrid="false"
     inkscape:zoom="0.35355339"
     inkscape:cx="-376.18081"
     inkscape:cy="462.44784"
     inkscape:window-width="1920"
     inkscape:window-height="1051"
     inkscape:window-x="-9"
     inkscape:window-y="-9"
     inkscape:window-maximized="1"
     inkscape:current-layer="layer1"
     fit-margin-top="0"
     fit-margin-left="0"
     fit-margin-right="0"
     fit-margin-bottom="0" />
  <defs
     id="defs2">
    <linearGradient
       id="linearGradient940"
       inkscape:swatch="solid">
      <stop
         style="stop-color:#e6e6e6;stop-opacity:1;"
         offset="0"
         id="stop938" />
    </linearGradient>
  </defs>
  <g
     inkscape:label="Слой 1"
     inkscape:groupmode="layer"
     id="layer1"
     transform="translate(-55.865379,-92.557693)">
    <circle
       style="fill:none;fill-opacity:1;fill-rule:evenodd;stroke:#ffffff;stroke-width:1.5;stroke-miterlimit:4;stroke-dasharray:none;stroke-opacity:1;paint-order:normal"
       id="path31"
       cx="106.61538"
       cy="143.30769"
       r="50" />
    <path
       style="fill:none;stroke:#ffffff;stroke-width:1;stroke-linecap:butt;stroke-linejoin:miter;stroke-miterlimit:4;stroke-dasharray:none;stroke-opacity:1"
       d="m 80.014059,125.64646 -0.04718,36.64232"
       id="path5283"
       sodipodi:nodetypes="cc" />
    <path
       style="fill:none;stroke:#ffffff;stroke-width:1;stroke-linecap:butt;stroke-linejoin:miter;stroke-miterlimit:4;stroke-dasharray:none;stroke-opacity:1"
       d="m 67.619981,136.85617 24.742986,-0.0442"
       id="path6185" />
    <path
       style="fill:none;stroke:#ffffff;stroke-width:1;stroke-linecap:butt;stroke-linejoin:miter;stroke-miterlimit:4;stroke-dasharray:none;stroke-opacity:1"
       d="m 80.014059,125.64646 c 8.198992,0.26279 11.692348,5.93644 12.216616,10.99601"
       id="path6389"
       sodipodi:nodetypes="cc" />
    <path
       style="fill:none;stroke:#ffffff;stroke-width:1;stroke-linecap:butt;stroke-linejoin:miter;stroke-miterlimit:4;stroke-dasharray:none;stroke-opacity:1"
       d="M 80.014059,125.64646 C 71.786254,125.91026 68.28062,131.6057 67.75451,136.6847"
       id="path6389-1"
       sodipodi:nodetypes="cc" />
    <path
       style="fill:none;stroke:#ffffff;stroke-width:1;stroke-linecap:butt;stroke-linejoin:miter;stroke-miterlimit:4;stroke-dasharray:none;stroke-opacity:1"
       d="m 80.014058,125.64646 c -4.959197,2.0265 -8.174301,5.37171 -8.031695,11.25567"
       id="path7395"
       sodipodi:nodetypes="cc" />
    <path
       style="fill:none;stroke:#ffffff;stroke-width:1;stroke-linecap:butt;stroke-linejoin:miter;stroke-miterlimit:4;stroke-dasharray:none;stroke-opacity:1"
       d="m 80.014058,125.64646 c 4.959197,2.0265 8.174301,5.37171 8.031695,11.25567"
       id="path7395-8"
       sodipodi:nodetypes="cc" />
    <path
       style="fill:none;stroke:#ffffff;stroke-width:1;stroke-linecap:butt;stroke-linejoin:miter;stroke-miterlimit:4;stroke-dasharray:none;stroke-opacity:1"
       d="m 59.304291,162.28937 94.205049,0.103"
       id="path8452" />
    <path
       style="fill:none;stroke:#ffffff;stroke-width:1;stroke-linecap:butt;stroke-linejoin:miter;stroke-miterlimit:4;stroke-dasharray:none;stroke-opacity:1"
       d="m 90.346097,148.2981 7.022915,7.20916 -6.914096,6.81162 45.630104,0.0718 -7.29066,0.0718 -8.63273,-7.00183 -11.52397,0.0344 -3.59806,-4.46367 -12.00795,0.0358 4.337362,4.44007 c 3.661218,-0.0123 11.357278,-3.3e-4 11.268648,-0.0122"
       id="path8639"
       sodipodi:nodetypes="ccccccccccc" />
    <path
       style="fill:none;fill-rule:evenodd;stroke:#ffffff;stroke-width:1;stroke-miterlimit:4;stroke-dasharray:none;stroke-opacity:1;paint-order:normal"
       id="path14919"
       sodipodi:type="arc"
       sodipodi:cx="122.8237"
       sodipodi:cy="120.39157"
       sodipodi:rx="14"
       sodipodi:ry="14"
       sodipodi:start="3.4239395"
       sodipodi:end="1.8649033"
       sodipodi:open="true"
       sodipodi:arc-type="arc"
       d="m 109.37804,116.49103 a 14,14 0 0 1 11.94478,-10.01877 14,14 0 0 1 13.80597,7.24213 14,14 0 0 1 -1.45319,15.5223 14,14 0 0 1 -14.91029,4.55374" />
    <path
       style="fill:none;stroke:#ffffff;stroke-width:1;stroke-linecap:butt;stroke-linejoin:miter;stroke-miterlimit:4;stroke-dasharray:none;stroke-opacity:1"
       d="m 116.93042,122.35599 c 1.96274,-0.94292 3.80582,-0.21066 5.51911,2.33861 -1.55969,-4.77535 0.82199,-7.96031 4.2095,-10.7576"
       id="path15575"
       sodipodi:nodetypes="ccc" />
    <path
       style="fill:none;stroke:#ffffff;stroke-width:1;stroke-linecap:butt;stroke-linejoin:miter;stroke-miterlimit:4;stroke-dasharray:none;stroke-opacity:1"
       d="m 114.44734,179.8923 c 1.96274,-0.94292 3.80582,-0.21066 5.51911,2.33861 -1.55969,-4.77535 0.82199,-7.96031 4.2095,-10.7576"
       id="path15575-2"
       sodipodi:nodetypes="ccc" />
    <path
       style="fill:none;stroke:#ffffff;stroke-width:1;stroke-linecap:butt;stroke-linejoin:miter;stroke-miterlimit:4;stroke-dasharray:none;stroke-opacity:1"
       d="m 63.372133,154.26116 c 1.96274,-0.94292 3.805823,-0.21066 5.519113,2.33861 -1.55969,-4.77535 0.82199,-7.96031 4.2095,-10.7576"
       id="path15575-28"
       sodipodi:nodetypes="ccc" />
  </g>
</svg>
